<?xml version="1.0" encoding="utf-8"?>
<!-- Generator: Adobe Illustrator 25.2.3, SVG Export Plug-In . SVG Version: 6.00 Build 0)  -->
<svg version="1.1" id="Layer_1" xmlns="http://www.w3.org/2000/svg" xmlns:xlink="http://www.w3.org/1999/xlink" x="0px" y="0px"
	 viewBox="0 0 24 24" style="enable-background:new 0 0 24 24;" xml:space="preserve">
<style type="text/css">
	.st0{fill:#CCCCCC;}
</style>
<path class="st0" d="M20.6,9.3c-0.2-2.1-0.7-6-3.7-5.4c-1.7,0.3-3.2,1.8-4.4,3.2C11.6,5.3,10,4,8.1,3.8C6,3.7,4.3,5,3.5,6.8
	c-0.9,2-0.6,4.2-0.6,6.4c0.1,2.2,0.2,4.4,1.7,6.2c1.3,1.6,3.7,2.7,5.7,2.8c2.1,0.1,4.2-1,5.9-2.1c1.8-1.1,3.2-2.5,3.8-4.5
	C20.7,13.6,20.8,11.3,20.6,9.3z M17.4,6.8c0,0.1-0.1,0.1-0.1,0.1C17.4,6.9,17.4,6.8,17.4,6.8z M15.5,17c-1.1,0.8-2.4,1.7-3.8,2.1
	c-1.4,0.4-2.8,0-4-0.8C6.6,17.5,6.1,16.3,6,15c-0.2-1.6-0.2-3.3-0.2-4.9c0-1.1,0.3-2.7,1.5-3.2C8.7,6.4,9.7,8,10.2,9
	c0.2,0.4,0.5,0.6,0.9,0.7c0.1,0.3,0.2,0.5,0.4,0.7c0.5,0.5,1.6,0.6,2.1,0c0.9-1.1,1.9-2.3,3.1-3.2c0,0,0.3-0.1,0.5-0.2
	c0.2,0.7,0.4,1.4,0.5,2.2C17.9,11.8,17.8,15.3,15.5,17z"/>
</svg>
