<?xml version="1.0" encoding="utf-8"?>
<!-- Generator: Adobe Illustrator 25.2.3, SVG Export Plug-In . SVG Version: 6.00 Build 0)  -->
<svg version="1.1" id="Layer_1" xmlns="http://www.w3.org/2000/svg" xmlns:xlink="http://www.w3.org/1999/xlink" x="0px" y="0px"
	 viewBox="0 0 12 12" style="enable-background:new 0 0 12 12;" xml:space="preserve">
<style type="text/css">
	.st0{fill:#333333;}
</style>
<g>
	<path class="st0" d="M4.8,3.6C5,3.4,5.2,3.2,5.4,3C5.5,3,5.6,2.9,5.7,2.8c0,0,0.1,0.1,0.1,0.1C5.9,3,6,3.2,6.1,3.3
		c0.2,0.3,0.5,0.6,0.7,1C7,4.5,7.2,4.6,7.5,4.5C7.7,4.4,7.8,4,7.7,3.8C7.3,3.4,7,2.9,6.7,2.5C6.4,2,5.9,1.3,5.3,1.7
		C5.1,1.9,4.9,2.1,4.7,2.3C4.5,2.5,4.3,2.7,4.1,2.9C3.7,3.3,3.3,3.7,2.9,4.1C2.4,4.6,3.1,5.3,3.6,4.8C4,4.4,4.4,4,4.8,3.6z"/>
	<path class="st0" d="M7.2,7.8C6.8,8.5,6.4,9.3,5.9,10C5.9,9.9,5.8,9.9,5.8,9.8C5.6,9.6,5.4,9.4,5.2,9.1c-0.4-0.4-0.7-0.9-1-1.4
		C4.1,7.5,3.8,7.4,3.5,7.6C3.3,7.7,3.2,8,3.3,8.3c0.6,1,1.4,2,2.2,2.8c0.2,0.2,0.4,0.3,0.6,0.2c0.2-0.1,0.3-0.2,0.4-0.4
		c0.2-0.3,0.3-0.6,0.5-0.9c0.3-0.6,0.6-1.2,1-1.7C8.3,7.7,7.5,7.2,7.2,7.8z"/>
</g>
</svg>
