<?xml version="1.0" encoding="utf-8"?>
<!-- Generator: Adobe Illustrator 25.2.3, SVG Export Plug-In . SVG Version: 6.00 Build 0)  -->
<svg version="1.1" id="Layer_1" xmlns="http://www.w3.org/2000/svg" xmlns:xlink="http://www.w3.org/1999/xlink" x="0px" y="0px"
	 viewBox="0 0 20 20" style="enable-background:new 0 0 20 20;" xml:space="preserve">
<style type="text/css">
	.st0{fill:#CCCCCC;}
</style>
<g>
	<path class="st0" d="M13.9,3.3c-0.7-0.3-1.4-0.5-2.1-0.7c-0.2,0-0.3-0.1-0.4-0.1C11,2.1,10.1,1.9,9.6,2.3C7.7,3.7,6,5.3,4.7,7.4
		c-0.6,1-1.1,2.1-1.3,3.3c-0.1,0.7,0,1.2,0.2,1.9c0.2,0.6,0.2,1.2,0.5,1.8c0.5,1.3,1.5,2.7,3.1,2.3c1.2-0.3,2.2-1.3,3.1-2.2
		c1.7-1.8,3.5-3.7,4.9-5.8c0.4-0.6,0.7-1.3,1-1.9c0.3-0.8,0.5-1.7-0.2-2.4C15.4,3.8,14.6,3.5,13.9,3.3z M6.5,13.7
		c0.1-0.1,0.1-0.1,0.2-0.1C6.6,13.7,6.6,13.7,6.5,13.7z M12.2,7.7c-0.7,0.9-1.4,1.7-2.1,2.5c-0.7,0.8-1.5,1.6-2.2,2.4
		c-0.3,0.3-0.6,0.6-0.9,0.9c-0.2-0.3-0.2-0.7-0.3-1.1c-0.1-0.3-0.1-0.6-0.2-0.8c-0.1-0.2-0.1-0.2-0.1-0.3c0-0.7,0.6-1.7,1-2.4
		c0.9-1.4,2-2.6,3.3-3.6c0.1,0.1,0.3,0.2,0.5,0.2c0.6,0.2,1.1,0.3,1.7,0.5c0.1,0,0.3,0.1,0.4,0.2C13,6.3,13,6.5,12.9,6.6
		C12.7,7,12.5,7.3,12.2,7.7z"/>
	<path class="st0" d="M18.6,2.2C18.4,1.8,18,1.3,17.7,1c-0.1-0.1-0.3-0.2-0.5-0.3c-0.2-0.1-0.4-0.1-0.6-0.1c-0.2,0-0.4,0-0.6,0.1
		c-0.2,0.1-0.3,0.2-0.5,0.3c-0.1,0.1-0.2,0.2-0.2,0.3c-0.1,0.2-0.2,0.5-0.2,0.8c0,0.1,0,0.3,0.1,0.4c0.1,0.3,0.2,0.5,0.4,0.7
		c0,0,0.1,0.1,0.1,0.1c0.1,0.2,0.2,0.3,0.4,0.5c0.1,0.2,0.2,0.3,0.4,0.4c0.1,0.1,0.3,0.2,0.5,0.3c0.2,0.1,0.4,0.1,0.6,0
		c0.2,0,0.4-0.1,0.6-0.2c0.1-0.1,0.2-0.2,0.3-0.2c0.2-0.2,0.3-0.4,0.4-0.7c0-0.1,0-0.3,0.1-0.4C18.8,2.7,18.8,2.4,18.6,2.2z"/>
</g>
</svg>
