<?xml version="1.0" encoding="utf-8"?>
<!-- Generator: Adobe Illustrator 25.2.3, SVG Export Plug-In . SVG Version: 6.00 Build 0)  -->
<svg version="1.1" id="Layer_1" xmlns="http://www.w3.org/2000/svg" xmlns:xlink="http://www.w3.org/1999/xlink" x="0px" y="0px"
	 viewBox="0 0 140 41.1" style="enable-background:new 0 0 140 41.1;" xml:space="preserve">
<style type="text/css">
	.st0{fill:#FFFFFF;}
	.st1{fill:#D5DD26;}
	.st2{fill:none;stroke:#FFFFFF;stroke-width:0.7916;stroke-linecap:round;stroke-miterlimit:10;}
	.st3{opacity:0.3;}
	.st4{fill:none;stroke:#FFFFFF;stroke-width:1.3194;stroke-linecap:round;stroke-miterlimit:10;}
</style>
<g>
	<g>
		<g>
			<path class="st0" d="M44.7,15.1l-4-5.7h0v5.7h-3.9V3.5h3.9v5h0l3.7-5h4.5l-4.2,5.4l4.4,6.2H44.7z"/>
			<path class="st0" d="M54.7,9.6v5.5h-4V3.5h4v4.2h2.5c3.1,0,4.8,1.6,4.8,4.4v3h-4v-3.8c0-1.2-0.6-1.8-1.9-1.8H54.7z"/>
			<path class="st0" d="M64.5,15.1V3.5h4v11.6H64.5z"/>
			<path class="st0" d="M84.4,15.1V3.5h4v11.6H84.4z"/>
			<path class="st0" d="M71,3.5v11.6h6.5c3.1,0,4.8-1.6,4.8-4.4V7.9c0-2.9-1.7-4.4-4.8-4.4H71z M74.9,13.2V5.3h1.4
				c1.3,0,1.9,0.6,1.9,1.8v4.3c0,1.2-0.6,1.8-1.9,1.8H74.9z"/>
			<path class="st0" d="M62.4,4.3c0,1.3-1,2.3-2.3,2.3c-1.3,0-2.3-1-2.3-2.3C57.7,3,58.8,2,60,2C61.3,2,62.4,3,62.4,4.3z"/>
		</g>
		<g>
			<path class="st1" d="M36.2,25.6c0-0.4,0.1-0.8,0.3-1.2h-1.1v-2.5h4v-1.5h3.7v1.5h4v2.5H46c0.2,0.4,0.3,0.8,0.3,1.2v0.9
				c0,2.4-2,3.9-5,3.9c-3,0-5-1.5-5-3.9V25.6z M48.8,32.4v-1.3h3.6v7.2H36.7v-7.2h3.6v1.3H48.8z M43,25.5c0-0.9-0.7-1.4-1.7-1.4
				s-1.7,0.5-1.7,1.4v0.7c0,0.9,0.5,1.5,1.7,1.5c1,0,1.7-0.6,1.7-1.5V25.5z M40.3,35.9h8.4v-1.3h-8.4V35.9z M52.3,23.7H54v3.1h-1.7
				v3.5h-3.6v-9.9h3.6V23.7z"/>
			<path class="st1" d="M55,30.4v-3c2.2-0.7,3.4-2.4,3.4-5.2v-1.4H62v2c0,0.5-0.1,1.1-0.2,1.6c2.6,0.4,4.4,2.5,4.4,5.7h-3.5
				c0-1.4-0.8-2.7-2-3C59.6,28.8,57.6,30.1,55,30.4z M67.9,30.9c2.7,0,4.1,1.5,4.1,3.7c0,2.2-1.4,3.7-4.1,3.7h-8.1
				c-2.7,0-4.1-1.5-4.1-3.7s1.4-3.7,4.1-3.7H67.9z M67,35.8c0.8,0,1.3-0.5,1.3-1.2c0-0.7-0.5-1.2-1.3-1.2h-6.4
				c-0.8,0-1.3,0.5-1.3,1.2c0,0.7,0.5,1.2,1.3,1.2H67z M68.2,30.3v-4.7h-2.8v-3h2.8v-2.1h3.6v9.8H68.2z"/>
			<path class="st1" d="M74.1,31v-3.1c2.2-0.8,3.5-2.6,3.6-5.6v-1.4h3.6v2.1c0,0.5,0,1-0.1,1.4c2.7,0.4,4.6,2.6,4.6,6.2h-3.5
				c0-1.5-0.7-3-2-3.5C78.9,29.2,76.8,30.6,74.1,31z M78.7,35.5h12.5v2.8H75v-6.5h3.7V35.5z M90.9,20.5v13.4h-3.6V20.5H90.9z"/>
			<path class="st1" d="M93.1,26.2v-1.4c0-2.8,2.2-4.2,5.3-4.2c3.1,0,5.3,1.4,5.3,4.2v1.4c0,2.8-2.2,4.2-5.3,4.2
				C95.3,30.5,93.1,29,93.1,26.2z M93.9,34.3v-2.8h15.6v6.8h-3.7v-4H93.9z M96.6,26.3c0,0.9,0.7,1.6,1.8,1.6c1.1,0,1.8-0.6,1.8-1.6
				v-1.5c0-0.9-0.7-1.6-1.8-1.6c-1.1,0-1.8,0.6-1.8,1.6V26.3z M111.1,25.1h-1.6v1.3h1.6v2.8h-1.6v1.5h-3.6V20.5h3.6v1.7h1.6V25.1z"
				/>
		</g>
		<g>
			<path class="st0" d="M115,25.9v-2.5c0-1.9,1.5-2.7,3-2.7c0.8,0,1.4,0.1,1.9,0.4l-0.2,1.4c-0.4-0.2-0.9-0.3-1.6-0.3
				c-0.8,0-1.4,0.4-1.4,1.2v2.3c0,0.8,0.7,1.2,1.4,1.2c0.6,0,1-0.1,1.7-0.4l0.2,1.4c-0.4,0.3-1.3,0.5-2,0.5
				C116.4,28.5,115,27.8,115,25.9z"/>
			<path class="st0" d="M128.1,28.4h-1.6l-0.4-4.8l-1,4.4h-1.7l-1-4.3l-0.4,4.8h-1.6l0.7-7.5h2l1.1,5l1.1-5h2L128.1,28.4z"/>
			<path class="st0" d="M128.6,25.9v-2.5c0-1.9,1.5-2.7,3-2.7c0.8,0,1.4,0.1,1.9,0.4l-0.2,1.4c-0.4-0.2-0.9-0.3-1.6-0.3
				c-0.8,0-1.4,0.4-1.4,1.2v2.3c0,0.8,0.7,1.2,1.4,1.2c0.6,0,1-0.1,1.7-0.4l0.2,1.4c-0.4,0.3-1.3,0.5-2,0.5
				C130.1,28.5,128.6,27.8,128.6,25.9z"/>
			<path class="st0" d="M120.6,35.6c-0.5,0.1-0.9,0.1-1.8,0.1h-0.5c0,1.6-1.3,2.7-2.9,2.8v-1.3c0.8-0.2,1.3-0.7,1.3-1.5H115v-1.3
				h3.9c0.9,0,1.3,0,1.8-0.1V35.6z M116.7,33.9c-1.1,0-1.7-0.7-1.7-1.6v0c0-0.9,0.6-1.6,1.7-1.6h2.1c1.1,0,1.7,0.7,1.7,1.6v0
				c0,0.9-0.6,1.6-1.7,1.6H116.7z M116.6,32.3c0,0.3,0.2,0.5,0.5,0.5h1.2c0.3,0,0.5-0.2,0.5-0.5v0c0-0.3-0.2-0.5-0.5-0.5h-1.2
				C116.7,31.8,116.6,32,116.6,32.3L116.6,32.3z M121,30.4h1.6v8H121v-0.9h-2.2v-1.3h2.2V30.4z"/>
			<path class="st0" d="M123.5,36.9h7.9v1.4h-7.9V36.9z M129.1,36.4c0.1-0.6,0.2-1.1,0.2-1.7h-5.5v-1.4h5.6v-0.5v-0.7h-5.5v-1.4h7.2
				v2.1c0,1.6-0.1,2.7-0.3,3.6H129.1z"/>
			<path class="st0" d="M138.4,33.9h1.6v1.1h-7.9v-1.1h1.6v-0.6h1.5v0.6h1.6v-0.6h1.5V33.9z M138,36v-0.5h1.7v3h-7.3v-3h1.7V36H138z
				 M132.4,33.1V32c1.7,0,2.6-0.6,2.8-1.6h1.6c0,0.3-0.1,0.5-0.2,0.7c1.4-0.1,2.8,0.6,3.1,2h-1.6c-0.3-0.7-1.3-1.1-2.3-0.9
				C135.1,32.8,133.9,33.2,132.4,33.1z M134.2,37.4h3.8v-0.5h-3.8V37.4z"/>
		</g>
	</g>
	<g>
		<g>
			<path class="st2" d="M16.3,39.1c-4.2-2-7-6.3-7-11v-1.7c0-4.7,2.7-9,7-11l5.2-2.4c3.4-1.6,5.5-5,5.5-8.7V3.5"/>
			<path class="st2" d="M29.5,28.1v-1.7c0-4.7-2.7-9-7-11l-0.1-0.1"/>
			<path class="st2" d="M29.5,3.5v0.9c0,4.7-2.7,9-7,11l-5.2,2.4c-3.4,1.6-5.5,5-5.5,8.7v1.7c0,6.6,4.7,11,7.9,11h2.5
				c2.5,0,4.9-1.3,6.2-3.5l0,0c0.8-1.3,1.2-2.8,1.2-4.3v-4.8c0-3.1-2.5-5.5-5.5-5.5h0c-3.1,0-5.5,2.5-5.5,5.5v7.2
				c0,1.1,0.3,2.1,0.8,2.9"/>
			<path class="st2" d="M24,23c1.9,0,3.5,1.5,3.5,3.5"/>
			<path class="st2" d="M21,24.7c0.2-0.4,0.5-0.7,0.9-1"/>
			<path class="st2" d="M16.4,15.4l-0.1-0.1c-4.2-2-7-6.3-7-11V3.5"/>
			<path class="st2" d="M25.3,21c-1-1.4-2.3-2.5-3.9-3.3l-2.1-1"/>
			<path class="st2" d="M11.8,3.5v0.9c0,3.7,2.2,7.1,5.5,8.7l2.1,1"/>
			<g class="st3">
				<line class="st4" x1="16.4" y1="20.2" x2="20.4" y2="20.2"/>
				<line class="st4" x1="14.2" y1="23.3" x2="17.4" y2="23.3"/>
				<line class="st4" x1="13.6" y1="26.5" x2="16.7" y2="26.5"/>
				<line class="st4" x1="13.7" y1="29.7" x2="16.7" y2="29.7"/>
				<line class="st4" x1="14.4" y1="32.8" x2="16.7" y2="32.8"/>
				<line class="st4" x1="16.6" y1="36" x2="17.2" y2="36"/>
				<line class="st4" x1="13.6" y1="4.4" x2="25.3" y2="4.4"/>
				<line class="st4" x1="14.2" y1="7.5" x2="24.7" y2="7.5"/>
				<line class="st4" x1="16.8" y1="10.7" x2="22.1" y2="10.7"/>
			</g>
			<line class="st2" x1="18.5" y1="29.7" x2="29.5" y2="29.7"/>
		</g>
		<path class="st0" d="M6.4,13c-1.4-1.4-3.5-1.5-5-0.3l4.1,4.1c0.2,0.2,0.2,0.4,0,0.6c-0.1,0.1-0.2,0.1-0.3,0.1S5,17.5,5,17.5
			l-4.1-4.1c-1.2,1.5-1.1,3.6,0.3,5c1.5,1.5,3.8,1.5,5.3,0C7.9,16.9,7.9,14.5,6.4,13z"/>
	</g>
</g>
</svg>
